<svg xmlns="http://www.w3.org/2000/svg" xmlns:xlink="http://www.w3.org/1999/xlink" viewBox="0 0 240.83 70.48"><defs><clipPath id="a" transform="translate(-1.02 -1.71)"><polygon points="31.54 1.71 46.8 10.52 62.06 19.33 62.06 36.95 62.06 54.57 46.8 63.38 31.54 72.19 24 67.84 24 62.21 24 54.93 24 23.17 32.6 28.14 39.08 31.88 39.08 54.93 41.21 53.7 50.88 48.12 50.88 36.95 50.88 25.79 41.21 20.2 31.54 14.62 21.87 20.2 12.2 25.79 12.2 31.37 12.2 36.95 12.2 48.12 12.2 61.02 1.02 54.57 1.02 36.95 1.02 19.33 16.28 10.52 31.54 1.71" style="fill:none;clip-rule:evenodd"></polygon></clipPath></defs><g style="clip-path:url(#a)"><rect width="61.04" height="70.48" style="fill:#4776e6"></rect></g><path d="M75.85,54.47V19.91H90.13l1.3,0a12.54,12.54,0,0,1,1.46.16,10.44,10.44,0,0,1,5,2,9.32,9.32,0,0,1,2.9,3.88,13.74,13.74,0,0,1,1,5.19,12.24,12.24,0,0,1-2.14,7.26A9.42,9.42,0,0,1,93,42.18l-2.47.22H81.63V54.47ZM81.63,37h8.26c.32,0,.68,0,1.08,0a5.85,5.85,0,0,0,1.1-.19,4.41,4.41,0,0,0,2.27-1.28,5.26,5.26,0,0,0,1.18-2.06,7.47,7.47,0,0,0,0-4.52,5.33,5.33,0,0,0-1.18-2.08,4.4,4.4,0,0,0-2.27-1.27,4.6,4.6,0,0,0-1.1-.18c-.4,0-.76,0-1.08,0H81.63ZM95.7,54.47,88.88,40.4l5.88-1.29,7.49,15.36Z" transform="translate(-1.02 -1.71)"></path><path d="M115,55.19a9.79,9.79,0,0,1-4.76-1.07,7.39,7.39,0,0,1-2.94-2.84,7.93,7.93,0,0,1-1-3.92A8.84,8.84,0,0,1,107,44a6.83,6.83,0,0,1,1.92-2.59,10.45,10.45,0,0,1,3.36-1.79,32.56,32.56,0,0,1,3.66-.91c1.4-.27,2.92-.52,4.56-.76l5.15-.75-2.06,1.17a5.52,5.52,0,0,0-1.2-4,5.62,5.62,0,0,0-4.13-1.27,7.43,7.43,0,0,0-3.39.82,4.57,4.57,0,0,0-2.28,2.81l-5.28-1.66a9.8,9.8,0,0,1,3.66-5.28,12,12,0,0,1,7.29-2A15.16,15.16,0,0,1,124.29,29a7.55,7.55,0,0,1,3.9,3.69,7.65,7.65,0,0,1,.84,2.8,29.87,29.87,0,0,1,.15,3.11V54.47h-5.07V48.85l.84.91a11.52,11.52,0,0,1-4.09,4.12A11.87,11.87,0,0,1,115,55.19Zm1.15-4.61a7.38,7.38,0,0,0,3.36-.7,6.61,6.61,0,0,0,2.22-1.7,5.87,5.87,0,0,0,1.11-1.9,7.24,7.24,0,0,0,.52-2.53q.06-1.43.06-2.31l1.78.52-4.49.72c-1.25.21-2.32.41-3.22.59a24.45,24.45,0,0,0-2.37.61,7.36,7.36,0,0,0-1.71.84,3.63,3.63,0,0,0-1.07,1.11,2.85,2.85,0,0,0-.37,1.46,3,3,0,0,0,.48,1.69,3.3,3.3,0,0,0,1.41,1.17A5.35,5.35,0,0,0,116.17,50.58Z" transform="translate(-1.02 -1.71)"></path><path d="M141.71,54.47,132.3,28.55h5.78l6.53,18.79,6.5-18.79h5.81l-9.41,25.92Z" transform="translate(-1.02 -1.71)"></path><path d="M172.31,55.19a13.66,13.66,0,0,1-6.92-1.71,12,12,0,0,1-4.64-4.72,14.22,14.22,0,0,1-1.67-7,15.69,15.69,0,0,1,1.63-7.38,11.91,11.91,0,0,1,4.54-4.86A12.84,12.84,0,0,1,172,27.83a12.09,12.09,0,0,1,6.85,1.88A11.18,11.18,0,0,1,183,35a18.12,18.12,0,0,1,1,8.09h-5.73V41c0-2.81-.52-4.87-1.49-6.16a5.39,5.39,0,0,0-4.61-2,6.29,6.29,0,0,0-5.28,2.2q-1.73,2.19-1.73,6.42a9.54,9.54,0,0,0,1.73,6.09,6.07,6.07,0,0,0,5,2.16,6.92,6.92,0,0,0,3.68-.94A6.2,6.2,0,0,0,178,46.07l5.71,1.73a11.57,11.57,0,0,1-4.59,5.44A12.66,12.66,0,0,1,172.31,55.19Zm-8.93-12.07V38.75h17.83v4.37Z" transform="translate(-1.02 -1.71)"></path><path d="M201.44,55.19a13.62,13.62,0,0,1-6.91-1.71,12.06,12.06,0,0,1-4.65-4.72,14.21,14.21,0,0,1-1.66-7,15.69,15.69,0,0,1,1.63-7.38,12,12,0,0,1,4.53-4.86,12.84,12.84,0,0,1,6.72-1.73A12.12,12.12,0,0,1,208,29.71,11.16,11.16,0,0,1,212.14,35a18.12,18.12,0,0,1,1,8.09h-5.74V41c0-2.81-.51-4.87-1.49-6.16a5.38,5.38,0,0,0-4.61-2,6.31,6.31,0,0,0-5.28,2.2q-1.73,2.19-1.72,6.42a9.54,9.54,0,0,0,1.72,6.09,6.09,6.09,0,0,0,5,2.16,6.93,6.93,0,0,0,3.69-.94,6.26,6.26,0,0,0,2.39-2.75l5.71,1.73a11.59,11.59,0,0,1-4.6,5.44A12.62,12.62,0,0,1,201.44,55.19Zm-8.93-12.07V38.75h17.83v4.37Z" transform="translate(-1.02 -1.71)"></path><path d="M218,54.47V28.55h5.16v8h.7V54.47Zm18,0V42a24.75,24.75,0,0,0-.17-2.71,9.55,9.55,0,0,0-.78-2.87,5.54,5.54,0,0,0-1.82-2.27,5.45,5.45,0,0,0-3.28-.89,6.87,6.87,0,0,0-2.18.36,5,5,0,0,0-2,1.24,6.17,6.17,0,0,0-1.4,2.4,12.11,12.11,0,0,0-.53,3.9l-3.43-1.47a13.88,13.88,0,0,1,1.28-6,10.24,10.24,0,0,1,3.78-4.28,11.23,11.23,0,0,1,6.15-1.6,10.37,10.37,0,0,1,4.75,1,8.33,8.33,0,0,1,3,2.45A10.76,10.76,0,0,1,241,34.38a16.08,16.08,0,0,1,.68,3.18c.1,1,.16,1.81.16,2.44V54.47Z" transform="translate(-1.02 -1.71)"></path></svg>